<svg width="16" height="16" viewBox="0 0 16 16" fill="none" xmlns="http://www.w3.org/2000/svg">
<g clip-path="url(#clip0_307:19)">
<path d="M11.4395 5.77179C11.4395 4.77723 11.0444 3.8234 10.3411 3.12014C9.63784 2.41688 8.68401 2.02179 7.68945 2.02179C6.69489 2.02179 5.74106 2.41688 5.0378 3.12014C4.33454 3.8234 3.93945 4.77723 3.93945 5.77179C3.93945 10.1468 2.06445 11.3968 2.06445 11.3968H13.3145C13.3145 11.3968 11.4395 10.1468 11.4395 5.77179Z" stroke="#79C7D4" stroke-width="1.2" stroke-linecap="round" stroke-linejoin="round"/>
<path d="M8.7709 13.8968C8.66102 14.0862 8.5033 14.2434 8.31354 14.3527C8.12378 14.462 7.90863 14.5196 7.68965 14.5196C7.47066 14.5196 7.25552 14.462 7.06576 14.3527C6.876 14.2434 6.71828 14.0862 6.6084 13.8968" stroke="#79C7D4" stroke-width="1.2" stroke-linecap="round" stroke-linejoin="round"/>
</g>
<defs>
<clipPath id="clip0_307:19">
<rect width="15" height="15" fill="white" transform="translate(0.189453 0.77179)"/>
</clipPath>
</defs>
</svg>
