<svg width="14" height="14" viewBox="0 0 14 14" fill="none" xmlns="http://www.w3.org/2000/svg">
<g clip-path="url(#clip0_311:6)">
<path d="M11.6182 8.96601V4.63268C11.618 4.4427 11.5678 4.25612 11.4727 4.09164C11.3777 3.92717 11.241 3.79058 11.0765 3.69559L7.28483 1.52893C7.12014 1.43385 6.93333 1.38379 6.74316 1.38379C6.553 1.38379 6.36619 1.43385 6.2015 1.52893L2.40983 3.69559C2.24531 3.79058 2.10865 3.92717 2.01358 4.09164C1.91851 4.25612 1.86836 4.4427 1.86816 4.63268V8.96601C1.86836 9.15599 1.91851 9.34257 2.01358 9.50705C2.10865 9.67152 2.24531 9.80811 2.40983 9.9031L6.2015 12.0698C6.36619 12.1648 6.553 12.2149 6.74316 12.2149C6.93333 12.2149 7.12014 12.1648 7.28483 12.0698L11.0765 9.9031C11.241 9.80811 11.3777 9.67152 11.4727 9.50705C11.5678 9.34257 11.618 9.15599 11.6182 8.96601Z" stroke="#1FA2B9" stroke-width="1.2" stroke-linecap="round" stroke-linejoin="round"/>
<path d="M2.01465 4.06934L6.7434 6.80475L11.4721 4.06934" stroke="#1FA2B9" stroke-width="1.2" stroke-linecap="round" stroke-linejoin="round"/>
<path d="M6.74316 12.2593V6.79932" stroke="#1FA2B9" stroke-width="1.2" stroke-linecap="round" stroke-linejoin="round"/>
</g>
<defs>
<clipPath id="clip0_311:6">
<rect width="13" height="13" fill="white" transform="translate(0.243164 0.299316)"/>
</clipPath>
</defs>
</svg>
