<svg width="14" height="14" viewBox="0 0 14 14" fill="none" xmlns="http://www.w3.org/2000/svg">
<g clip-path="url(#clip0_311:77)">
<path d="M7.8903 1.14648H3.55697C3.26965 1.14648 2.9941 1.26062 2.79093 1.46379C2.58777 1.66695 2.47363 1.9425 2.47363 2.22982V10.8965C2.47363 11.1838 2.58777 11.4594 2.79093 11.6625C2.9941 11.8657 3.26965 11.9798 3.55697 11.9798H10.057C10.3443 11.9798 10.6198 11.8657 10.823 11.6625C11.0262 11.4594 11.1403 11.1838 11.1403 10.8965V4.39648L7.8903 1.14648Z" stroke="#1FA2B9" stroke-width="1.2" stroke-linecap="round" stroke-linejoin="round"/>
<path d="M7.88965 1.14648V4.39648H11.1396" stroke="#1FA2B9" stroke-width="1.2" stroke-linecap="round" stroke-linejoin="round"/>
<path d="M8.97298 7.10474H4.63965" stroke="#1FA2B9" stroke-width="1.2" stroke-linecap="round" stroke-linejoin="round"/>
<path d="M8.97298 9.27148H4.63965" stroke="#1FA2B9" stroke-width="1.2" stroke-linecap="round" stroke-linejoin="round"/>
<path d="M5.72298 4.93823H5.18131H4.63965" stroke="#1FA2B9" stroke-width="1.2" stroke-linecap="round" stroke-linejoin="round"/>
</g>
<defs>
<clipPath id="clip0_311:77">
<rect width="13" height="13" fill="white" transform="translate(0.307617 0.0632324)"/>
</clipPath>
</defs>
</svg>
