<svg width="14" height="14" viewBox="0 0 14 14" fill="none" xmlns="http://www.w3.org/2000/svg">
<g clip-path="url(#clip0_311:83)">
<path d="M7.8903 1.39209H3.55697C3.26965 1.39209 2.9941 1.50623 2.79093 1.70939C2.58777 1.91256 2.47363 2.18811 2.47363 2.47542V11.1421C2.47363 11.4294 2.58777 11.705 2.79093 11.9081C2.9941 12.1113 3.26965 12.2254 3.55697 12.2254H10.057C10.3443 12.2254 10.6198 12.1113 10.823 11.9081C11.0262 11.705 11.1403 11.4294 11.1403 11.1421V4.64209L7.8903 1.39209Z" stroke="#1FA2B9" stroke-width="1.2" stroke-linecap="round" stroke-linejoin="round"/>
<path d="M7.88965 1.39209V4.64209H11.1396" stroke="#1FA2B9" stroke-width="1.2" stroke-linecap="round" stroke-linejoin="round"/>
<path d="M6.80664 10.0587V6.80872" stroke="#1FA2B9" stroke-width="1.2" stroke-linecap="round" stroke-linejoin="round"/>
<path d="M5.18164 8.43372H8.43164" stroke="#1FA2B9" stroke-width="1.2" stroke-linecap="round" stroke-linejoin="round"/>
</g>
<defs>
<clipPath id="clip0_311:83">
<rect width="13" height="13" fill="white" transform="translate(0.307617 0.308716)"/>
</clipPath>
</defs>
</svg>
