<svg width="14" height="14" viewBox="0 0 14 14" fill="none" xmlns="http://www.w3.org/2000/svg">
<g clip-path="url(#clip0_311:71)">
<path d="M6.23242 3.01794H2.44076C2.15344 3.01794 1.87789 3.13208 1.67472 3.33525C1.47156 3.53841 1.35742 3.81396 1.35742 4.10128V11.6846C1.35742 11.9719 1.47156 12.2475 1.67472 12.4506C1.87789 12.6538 2.15344 12.7679 2.44076 12.7679H10.0241C10.3114 12.7679 10.587 12.6538 10.7901 12.4506C10.9933 12.2475 11.1074 11.9719 11.1074 11.6846V7.89294" stroke="#1FA2B9" stroke-width="1.2" stroke-linecap="round" stroke-linejoin="round"/>
<path d="M10.2949 2.20532C10.5104 1.98983 10.8027 1.86877 11.1074 1.86877C11.4122 1.86877 11.7044 1.98983 11.9199 2.20532C12.1354 2.42081 12.2565 2.71308 12.2565 3.01782C12.2565 3.32257 12.1354 3.61483 11.9199 3.83032L6.77409 8.97616L4.60742 9.51782L5.14909 7.35116L10.2949 2.20532Z" stroke="#1FA2B9" stroke-width="1.2" stroke-linecap="round" stroke-linejoin="round"/>
</g>
<defs>
<clipPath id="clip0_311:71">
<rect width="13" height="13" fill="white" transform="translate(0.307617 0.818237)"/>
</clipPath>
</defs>
</svg>
