<svg width="16" height="16" viewBox="0 0 16 16" fill="none" xmlns="http://www.w3.org/2000/svg">
<g clip-path="url(#clip0_307:22)">
<path d="M5.81445 14.5218C6.15963 14.5218 6.43945 14.242 6.43945 13.8968C6.43945 13.5516 6.15963 13.2718 5.81445 13.2718C5.46928 13.2718 5.18945 13.5516 5.18945 13.8968C5.18945 14.242 5.46928 14.5218 5.81445 14.5218Z" stroke="#79C7D4" stroke-width="1.3" stroke-linecap="round" stroke-linejoin="round"/>
<path d="M12.6895 14.5218C13.0346 14.5218 13.3145 14.242 13.3145 13.8968C13.3145 13.5516 13.0346 13.2718 12.6895 13.2718C12.3443 13.2718 12.0645 13.5516 12.0645 13.8968C12.0645 14.242 12.3443 14.5218 12.6895 14.5218Z" stroke="#79C7D4" stroke-width="1.3" stroke-linecap="round" stroke-linejoin="round"/>
<path d="M0.814453 1.39679H3.31445L4.98945 9.76554C5.04661 10.0533 5.20315 10.3118 5.43167 10.4957C5.66019 10.6797 5.94614 10.7774 6.23945 10.7718H12.3145C12.6078 10.7774 12.8937 10.6797 13.1222 10.4957C13.3508 10.3118 13.5073 10.0533 13.5645 9.76554L14.5645 4.52179H3.93945" stroke="#79C7D4" stroke-width="1.3" stroke-linecap="round" stroke-linejoin="round"/>
</g>
<defs>
<clipPath id="clip0_307:22">
<rect width="15" height="15" fill="white" transform="translate(0.189453 0.77179)"/>
</clipPath>
</defs>
</svg>
